<mxfile host="app.diagrams.net" modified="2021-03-24T09:27:29.190Z" agent="5.0 (Macintosh; Intel Mac OS X 11_2_3) AppleWebKit/537.36 (KHTML, like Gecko) Chrome/89.0.4389.90 Safari/537.36" etag="PqvAYbz74gKOn65IR9om" version="14.4.9" type="github">
  <diagram id="reHgUynTF3abRSO_6Du6" name="Page-1">
    <mxGraphModel dx="988" dy="553" grid="0" gridSize="10" guides="1" tooltips="1" connect="1" arrows="1" fold="1" page="1" pageScale="1" pageWidth="827" pageHeight="1169" math="0" shadow="0">
      <root>
        <mxCell id="0" />
        <mxCell id="1" parent="0" />
        <mxCell id="j_E0jaQ_0IbvvqRghjtS-70" value="" style="rounded=0;whiteSpace=wrap;html=1;absoluteArcSize=1;arcSize=14;strokeWidth=1;dashed=1;" vertex="1" parent="1">
          <mxGeometry x="382" y="470" width="311.25" height="100" as="geometry" />
        </mxCell>
        <mxCell id="j_E0jaQ_0IbvvqRghjtS-62" value="" style="rounded=0;whiteSpace=wrap;html=1;absoluteArcSize=1;arcSize=14;strokeWidth=1;dashed=1;" vertex="1" parent="1">
          <mxGeometry x="45.5" y="471" width="316.5" height="100" as="geometry" />
        </mxCell>
        <mxCell id="j_E0jaQ_0IbvvqRghjtS-57" value="拉新业务" style="rounded=0;whiteSpace=wrap;html=1;absoluteArcSize=1;arcSize=14;strokeWidth=1;align=left;verticalAlign=top;dashed=1;" vertex="1" parent="1">
          <mxGeometry x="683.25" y="171.5" width="101" height="157" as="geometry" />
        </mxCell>
        <mxCell id="j_E0jaQ_0IbvvqRghjtS-54" value="投放" style="rounded=0;whiteSpace=wrap;html=1;absoluteArcSize=1;arcSize=14;strokeWidth=1;align=left;verticalAlign=top;dashed=1;" vertex="1" parent="1">
          <mxGeometry x="45.5" y="130" width="570" height="290" as="geometry" />
        </mxCell>
        <mxCell id="j_E0jaQ_0IbvvqRghjtS-49" value="数据中心" style="rounded=0;whiteSpace=wrap;html=1;absoluteArcSize=1;arcSize=14;strokeWidth=1;align=left;verticalAlign=top;" vertex="1" parent="1">
          <mxGeometry x="443.5" y="156" width="145" height="260" as="geometry" />
        </mxCell>
        <mxCell id="j_E0jaQ_0IbvvqRghjtS-43" value="&lt;div&gt;&lt;span&gt;投放规则&lt;/span&gt;&lt;/div&gt;" style="rounded=0;whiteSpace=wrap;html=1;absoluteArcSize=1;arcSize=14;strokeWidth=1;align=left;verticalAlign=top;" vertex="1" parent="1">
          <mxGeometry x="243.5" y="156" width="150" height="260" as="geometry" />
        </mxCell>
        <mxCell id="j_E0jaQ_0IbvvqRghjtS-37" value="应用场景" style="rounded=0;whiteSpace=wrap;html=1;absoluteArcSize=1;arcSize=14;strokeWidth=1;align=left;verticalAlign=top;dashed=1;" vertex="1" parent="1">
          <mxGeometry x="43" y="30" width="705" height="90" as="geometry" />
        </mxCell>
        <mxCell id="j_E0jaQ_0IbvvqRghjtS-28" value="基础能力" style="rounded=0;whiteSpace=wrap;html=1;absoluteArcSize=1;arcSize=14;strokeWidth=1;align=left;verticalAlign=top;" vertex="1" parent="1">
          <mxGeometry x="68.5" y="156" width="145" height="260" as="geometry" />
        </mxCell>
        <mxCell id="j_E0jaQ_0IbvvqRghjtS-1" value="二方拉新业务" style="shape=umlLifeline;perimeter=lifelinePerimeter;whiteSpace=wrap;html=1;container=1;collapsible=0;recursiveResize=0;outlineConnect=0;" vertex="1" parent="1">
          <mxGeometry x="34.25" y="700" width="100" height="300" as="geometry" />
        </mxCell>
        <mxCell id="j_E0jaQ_0IbvvqRghjtS-10" value="" style="html=1;points=[];perimeter=orthogonalPerimeter;" vertex="1" parent="j_E0jaQ_0IbvvqRghjtS-1">
          <mxGeometry x="45" y="110" width="10" height="20" as="geometry" />
        </mxCell>
        <mxCell id="j_E0jaQ_0IbvvqRghjtS-26" value="资源位内容" style="html=1;verticalAlign=bottom;endArrow=open;dashed=1;endSize=8;" edge="1" parent="j_E0jaQ_0IbvvqRghjtS-1" source="j_E0jaQ_0IbvvqRghjtS-2">
          <mxGeometry relative="1" as="geometry">
            <mxPoint x="130" y="280" as="sourcePoint" />
            <mxPoint x="50" y="280" as="targetPoint" />
          </mxGeometry>
        </mxCell>
        <mxCell id="j_E0jaQ_0IbvvqRghjtS-2" value="投放" style="shape=umlLifeline;perimeter=lifelinePerimeter;whiteSpace=wrap;html=1;container=1;collapsible=0;recursiveResize=0;outlineConnect=0;" vertex="1" parent="1">
          <mxGeometry x="194.25" y="700" width="100" height="300" as="geometry" />
        </mxCell>
        <mxCell id="j_E0jaQ_0IbvvqRghjtS-6" value="" style="html=1;points=[];perimeter=orthogonalPerimeter;" vertex="1" parent="j_E0jaQ_0IbvvqRghjtS-2">
          <mxGeometry x="45" y="80" width="10" height="20" as="geometry" />
        </mxCell>
        <mxCell id="j_E0jaQ_0IbvvqRghjtS-8" value="" style="html=1;points=[];perimeter=orthogonalPerimeter;" vertex="1" parent="j_E0jaQ_0IbvvqRghjtS-2">
          <mxGeometry x="45" y="100" width="10" height="40" as="geometry" />
        </mxCell>
        <mxCell id="j_E0jaQ_0IbvvqRghjtS-9" value="排期决策" style="edgeStyle=orthogonalEdgeStyle;html=1;align=left;spacingLeft=2;endArrow=block;rounded=0;entryX=1;entryY=0;" edge="1" target="j_E0jaQ_0IbvvqRghjtS-8" parent="j_E0jaQ_0IbvvqRghjtS-2">
          <mxGeometry relative="1" as="geometry">
            <mxPoint x="50" y="80" as="sourcePoint" />
            <Array as="points">
              <mxPoint x="45" y="80" />
              <mxPoint x="75" y="80" />
              <mxPoint x="75" y="220" />
            </Array>
          </mxGeometry>
        </mxCell>
        <mxCell id="j_E0jaQ_0IbvvqRghjtS-13" value="" style="html=1;points=[];perimeter=orthogonalPerimeter;" vertex="1" parent="j_E0jaQ_0IbvvqRghjtS-2">
          <mxGeometry x="45" y="140" width="10" height="50" as="geometry" />
        </mxCell>
        <mxCell id="j_E0jaQ_0IbvvqRghjtS-22" value="" style="html=1;points=[];perimeter=orthogonalPerimeter;" vertex="1" parent="j_E0jaQ_0IbvvqRghjtS-2">
          <mxGeometry x="45" y="190" width="10" height="100" as="geometry" />
        </mxCell>
        <mxCell id="j_E0jaQ_0IbvvqRghjtS-3" value="策略流" style="shape=umlLifeline;perimeter=lifelinePerimeter;whiteSpace=wrap;html=1;container=1;collapsible=0;recursiveResize=0;outlineConnect=0;" vertex="1" parent="1">
          <mxGeometry x="354.25" y="700" width="100" height="300" as="geometry" />
        </mxCell>
        <mxCell id="j_E0jaQ_0IbvvqRghjtS-16" value="" style="html=1;points=[];perimeter=orthogonalPerimeter;" vertex="1" parent="j_E0jaQ_0IbvvqRghjtS-3">
          <mxGeometry x="46" y="140" width="10" height="30" as="geometry" />
        </mxCell>
        <mxCell id="j_E0jaQ_0IbvvqRghjtS-4" value="算法" style="shape=umlLifeline;perimeter=lifelinePerimeter;whiteSpace=wrap;html=1;container=1;collapsible=0;recursiveResize=0;outlineConnect=0;" vertex="1" parent="1">
          <mxGeometry x="514.25" y="700" width="100" height="300" as="geometry" />
        </mxCell>
        <mxCell id="j_E0jaQ_0IbvvqRghjtS-19" value="" style="html=1;points=[];perimeter=orthogonalPerimeter;" vertex="1" parent="j_E0jaQ_0IbvvqRghjtS-4">
          <mxGeometry x="45" y="190" width="10" height="30" as="geometry" />
        </mxCell>
        <mxCell id="j_E0jaQ_0IbvvqRghjtS-5" value="钩子库" style="shape=umlLifeline;perimeter=lifelinePerimeter;whiteSpace=wrap;html=1;container=1;collapsible=0;recursiveResize=0;outlineConnect=0;" vertex="1" parent="1">
          <mxGeometry x="674.25" y="700" width="100" height="310" as="geometry" />
        </mxCell>
        <mxCell id="j_E0jaQ_0IbvvqRghjtS-23" value="" style="html=1;points=[];perimeter=orthogonalPerimeter;" vertex="1" parent="j_E0jaQ_0IbvvqRghjtS-5">
          <mxGeometry x="45" y="240" width="10" height="30" as="geometry" />
        </mxCell>
        <mxCell id="j_E0jaQ_0IbvvqRghjtS-7" value="获取资源位" style="html=1;verticalAlign=bottom;startArrow=oval;endArrow=block;startSize=8;" edge="1" parent="1">
          <mxGeometry relative="1" as="geometry">
            <mxPoint x="83.75" y="784" as="sourcePoint" />
            <mxPoint x="239.25" y="784" as="targetPoint" />
          </mxGeometry>
        </mxCell>
        <mxCell id="j_E0jaQ_0IbvvqRghjtS-12" value="有效排期优先级" style="html=1;verticalAlign=bottom;endArrow=open;dashed=1;endSize=8;exitX=1;exitY=0.95;" edge="1" source="j_E0jaQ_0IbvvqRghjtS-10" parent="1" target="j_E0jaQ_0IbvvqRghjtS-2">
          <mxGeometry relative="1" as="geometry">
            <mxPoint x="149.25" y="867" as="targetPoint" />
          </mxGeometry>
        </mxCell>
        <mxCell id="j_E0jaQ_0IbvvqRghjtS-11" value="业务方定制策略" style="html=1;verticalAlign=bottom;endArrow=block;entryX=1;entryY=0;" edge="1" target="j_E0jaQ_0IbvvqRghjtS-10" parent="1" source="j_E0jaQ_0IbvvqRghjtS-2">
          <mxGeometry relative="1" as="geometry">
            <mxPoint x="149.25" y="810" as="sourcePoint" />
          </mxGeometry>
        </mxCell>
        <mxCell id="j_E0jaQ_0IbvvqRghjtS-18" value="决策" style="html=1;verticalAlign=bottom;endArrow=open;dashed=1;endSize=8;exitX=0;exitY=0.95;" edge="1" source="j_E0jaQ_0IbvvqRghjtS-16" parent="1">
          <mxGeometry relative="1" as="geometry">
            <mxPoint x="244.25" y="869" as="targetPoint" />
          </mxGeometry>
        </mxCell>
        <mxCell id="j_E0jaQ_0IbvvqRghjtS-17" value="" style="html=1;verticalAlign=bottom;endArrow=block;entryX=0;entryY=0;" edge="1" target="j_E0jaQ_0IbvvqRghjtS-16" parent="1" source="j_E0jaQ_0IbvvqRghjtS-2">
          <mxGeometry relative="1" as="geometry">
            <mxPoint x="333.25" y="830" as="sourcePoint" />
          </mxGeometry>
        </mxCell>
        <mxCell id="j_E0jaQ_0IbvvqRghjtS-21" value="素材id" style="html=1;verticalAlign=bottom;endArrow=open;dashed=1;endSize=8;entryX=0.5;entryY=0.313;entryDx=0;entryDy=0;entryPerimeter=0;" edge="1" parent="1">
          <mxGeometry relative="1" as="geometry">
            <mxPoint x="244.25" y="918.04" as="targetPoint" />
            <mxPoint x="559.25" y="918" as="sourcePoint" />
          </mxGeometry>
        </mxCell>
        <mxCell id="j_E0jaQ_0IbvvqRghjtS-20" value="素材召回" style="html=1;verticalAlign=bottom;endArrow=block;entryX=0;entryY=0;" edge="1" target="j_E0jaQ_0IbvvqRghjtS-19" parent="1" source="j_E0jaQ_0IbvvqRghjtS-2">
          <mxGeometry relative="1" as="geometry">
            <mxPoint x="489.25" y="890" as="sourcePoint" />
          </mxGeometry>
        </mxCell>
        <mxCell id="j_E0jaQ_0IbvvqRghjtS-25" value="素材内容" style="html=1;verticalAlign=bottom;endArrow=open;dashed=1;endSize=8;exitX=0;exitY=0.95;" edge="1" source="j_E0jaQ_0IbvvqRghjtS-23" parent="1" target="j_E0jaQ_0IbvvqRghjtS-2">
          <mxGeometry relative="1" as="geometry">
            <mxPoint x="649.25" y="1006" as="targetPoint" />
          </mxGeometry>
        </mxCell>
        <mxCell id="j_E0jaQ_0IbvvqRghjtS-24" value="素材id" style="html=1;verticalAlign=bottom;endArrow=block;entryX=0;entryY=0;" edge="1" target="j_E0jaQ_0IbvvqRghjtS-23" parent="1" source="j_E0jaQ_0IbvvqRghjtS-2">
          <mxGeometry relative="1" as="geometry">
            <mxPoint x="649.25" y="930" as="sourcePoint" />
          </mxGeometry>
        </mxCell>
        <mxCell id="j_E0jaQ_0IbvvqRghjtS-29" value="支付宝领券链路" style="rounded=0;whiteSpace=wrap;html=1;absoluteArcSize=1;arcSize=14;strokeWidth=1;" vertex="1" parent="1">
          <mxGeometry x="68" y="60" width="100" height="50" as="geometry" />
        </mxCell>
        <mxCell id="j_E0jaQ_0IbvvqRghjtS-30" value="支付宝购后弹窗" style="rounded=0;whiteSpace=wrap;html=1;absoluteArcSize=1;arcSize=14;strokeWidth=1;" vertex="1" parent="1">
          <mxGeometry x="188" y="60" width="100" height="50" as="geometry" />
        </mxCell>
        <mxCell id="j_E0jaQ_0IbvvqRghjtS-31" value="淘宝搭建页面" style="rounded=0;whiteSpace=wrap;html=1;absoluteArcSize=1;arcSize=14;strokeWidth=1;" vertex="1" parent="1">
          <mxGeometry x="308" y="60" width="100" height="50" as="geometry" />
        </mxCell>
        <mxCell id="j_E0jaQ_0IbvvqRghjtS-32" value="淘宝购后" style="rounded=0;whiteSpace=wrap;html=1;absoluteArcSize=1;arcSize=14;strokeWidth=1;" vertex="1" parent="1">
          <mxGeometry x="428" y="60" width="100" height="50" as="geometry" />
        </mxCell>
        <mxCell id="j_E0jaQ_0IbvvqRghjtS-33" value="小程序首页" style="rounded=0;whiteSpace=wrap;html=1;absoluteArcSize=1;arcSize=14;strokeWidth=1;" vertex="1" parent="1">
          <mxGeometry x="548" y="60" width="100" height="50" as="geometry" />
        </mxCell>
        <mxCell id="j_E0jaQ_0IbvvqRghjtS-34" value="策略流" style="rounded=0;whiteSpace=wrap;html=1;absoluteArcSize=1;arcSize=14;strokeWidth=1;" vertex="1" parent="1">
          <mxGeometry x="52.5" y="481" width="92.5" height="34" as="geometry" />
        </mxCell>
        <mxCell id="j_E0jaQ_0IbvvqRghjtS-36" value="钩子库" style="rounded=0;whiteSpace=wrap;html=1;absoluteArcSize=1;arcSize=14;strokeWidth=1;" vertex="1" parent="1">
          <mxGeometry x="386.75" y="480" width="92.5" height="30" as="geometry" />
        </mxCell>
        <mxCell id="j_E0jaQ_0IbvvqRghjtS-38" value="..." style="rounded=0;whiteSpace=wrap;html=1;absoluteArcSize=1;arcSize=14;strokeWidth=1;" vertex="1" parent="1">
          <mxGeometry x="668" y="60" width="60" height="50" as="geometry" />
        </mxCell>
        <mxCell id="j_E0jaQ_0IbvvqRghjtS-39" value="排期" style="rounded=0;whiteSpace=wrap;html=1;absoluteArcSize=1;arcSize=14;strokeWidth=1;" vertex="1" parent="1">
          <mxGeometry x="88.5" y="186" width="95" height="40" as="geometry" />
        </mxCell>
        <mxCell id="j_E0jaQ_0IbvvqRghjtS-41" value="通投" style="rounded=0;whiteSpace=wrap;html=1;absoluteArcSize=1;arcSize=14;strokeWidth=1;" vertex="1" parent="1">
          <mxGeometry x="264.5" y="186" width="100" height="40" as="geometry" />
        </mxCell>
        <mxCell id="j_E0jaQ_0IbvvqRghjtS-44" value="定投" style="rounded=0;whiteSpace=wrap;html=1;absoluteArcSize=1;arcSize=14;strokeWidth=1;" vertex="1" parent="1">
          <mxGeometry x="264.5" y="246" width="100" height="40" as="geometry" />
        </mxCell>
        <mxCell id="j_E0jaQ_0IbvvqRghjtS-45" value="赛马" style="rounded=0;whiteSpace=wrap;html=1;absoluteArcSize=1;arcSize=14;strokeWidth=1;" vertex="1" parent="1">
          <mxGeometry x="264.5" y="306" width="100" height="40" as="geometry" />
        </mxCell>
        <mxCell id="j_E0jaQ_0IbvvqRghjtS-46" value="个性化" style="rounded=0;whiteSpace=wrap;html=1;absoluteArcSize=1;arcSize=14;strokeWidth=1;" vertex="1" parent="1">
          <mxGeometry x="264.5" y="366" width="100" height="40" as="geometry" />
        </mxCell>
        <mxCell id="j_E0jaQ_0IbvvqRghjtS-47" value="素材管理" style="rounded=0;whiteSpace=wrap;html=1;absoluteArcSize=1;arcSize=14;strokeWidth=1;" vertex="1" parent="1">
          <mxGeometry x="88.5" y="246" width="95" height="40" as="geometry" />
        </mxCell>
        <mxCell id="j_E0jaQ_0IbvvqRghjtS-48" value="数据分析" style="rounded=0;whiteSpace=wrap;html=1;absoluteArcSize=1;arcSize=14;strokeWidth=1;" vertex="1" parent="1">
          <mxGeometry x="463.5" y="263" width="100" height="50" as="geometry" />
        </mxCell>
        <mxCell id="j_E0jaQ_0IbvvqRghjtS-50" value="流程审批" style="rounded=0;whiteSpace=wrap;html=1;absoluteArcSize=1;arcSize=14;strokeWidth=1;" vertex="1" parent="1">
          <mxGeometry x="88.5" y="301" width="97.5" height="45" as="geometry" />
        </mxCell>
        <mxCell id="j_E0jaQ_0IbvvqRghjtS-51" value="数据补全" style="rounded=0;whiteSpace=wrap;html=1;absoluteArcSize=1;arcSize=14;strokeWidth=1;" vertex="1" parent="1">
          <mxGeometry x="88.5" y="361" width="97.5" height="45" as="geometry" />
        </mxCell>
        <mxCell id="j_E0jaQ_0IbvvqRghjtS-53" value="数据大盘" style="rounded=0;whiteSpace=wrap;html=1;absoluteArcSize=1;arcSize=14;strokeWidth=1;" vertex="1" parent="1">
          <mxGeometry x="463.5" y="186" width="100" height="50" as="geometry" />
        </mxCell>
        <mxCell id="j_E0jaQ_0IbvvqRghjtS-55" value="梵高" style="rounded=0;whiteSpace=wrap;html=1;absoluteArcSize=1;arcSize=14;strokeWidth=1;" vertex="1" parent="1">
          <mxGeometry x="590.75" y="480" width="92.5" height="30" as="geometry" />
        </mxCell>
        <mxCell id="j_E0jaQ_0IbvvqRghjtS-56" value="算法" style="rounded=0;whiteSpace=wrap;html=1;absoluteArcSize=1;arcSize=14;strokeWidth=1;" vertex="1" parent="1">
          <mxGeometry x="152.5" y="481" width="92.5" height="34" as="geometry" />
        </mxCell>
        <mxCell id="j_E0jaQ_0IbvvqRghjtS-58" value="拉新前台" style="rounded=0;whiteSpace=wrap;html=1;absoluteArcSize=1;arcSize=14;strokeWidth=1;" vertex="1" parent="1">
          <mxGeometry x="694.25" y="208.5" width="79" height="30" as="geometry" />
        </mxCell>
        <mxCell id="j_E0jaQ_0IbvvqRghjtS-59" value="配置后台" style="rounded=0;whiteSpace=wrap;html=1;absoluteArcSize=1;arcSize=14;strokeWidth=1;" vertex="1" parent="1">
          <mxGeometry x="695.25" y="269.5" width="79" height="30" as="geometry" />
        </mxCell>
        <mxCell id="j_E0jaQ_0IbvvqRghjtS-61" value="智能营销" style="rounded=0;whiteSpace=wrap;html=1;absoluteArcSize=1;arcSize=14;strokeWidth=1;" vertex="1" parent="1">
          <mxGeometry x="257.5" y="481" width="92.5" height="34" as="geometry" />
        </mxCell>
        <mxCell id="j_E0jaQ_0IbvvqRghjtS-63" value="提供决策" style="shape=singleArrow;direction=north;whiteSpace=wrap;html=1;rounded=0;dashed=1;strokeWidth=1;align=left;" vertex="1" parent="1">
          <mxGeometry x="168" y="420" width="60" height="50" as="geometry" />
        </mxCell>
        <mxCell id="j_E0jaQ_0IbvvqRghjtS-64" value="选品池" style="rounded=0;whiteSpace=wrap;html=1;absoluteArcSize=1;arcSize=14;strokeWidth=1;" vertex="1" parent="1">
          <mxGeometry x="493.25" y="480" width="92.5" height="30" as="geometry" />
        </mxCell>
        <mxCell id="j_E0jaQ_0IbvvqRghjtS-67" value="权益中心" style="rounded=0;whiteSpace=wrap;html=1;absoluteArcSize=1;arcSize=14;strokeWidth=1;" vertex="1" parent="1">
          <mxGeometry x="386.75" y="530" width="92.5" height="30" as="geometry" />
        </mxCell>
        <mxCell id="j_E0jaQ_0IbvvqRghjtS-68" value="商品" style="rounded=0;whiteSpace=wrap;html=1;absoluteArcSize=1;arcSize=14;strokeWidth=1;" vertex="1" parent="1">
          <mxGeometry x="493.25" y="530" width="92.5" height="30" as="geometry" />
        </mxCell>
        <mxCell id="j_E0jaQ_0IbvvqRghjtS-69" value="促销" style="rounded=0;whiteSpace=wrap;html=1;absoluteArcSize=1;arcSize=14;strokeWidth=1;" vertex="1" parent="1">
          <mxGeometry x="590.75" y="530" width="92.5" height="30" as="geometry" />
        </mxCell>
        <mxCell id="j_E0jaQ_0IbvvqRghjtS-71" value="提供素材" style="shape=singleArrow;direction=north;whiteSpace=wrap;html=1;rounded=0;dashed=1;strokeWidth=1;align=left;" vertex="1" parent="1">
          <mxGeometry x="506" y="420" width="60" height="50" as="geometry" />
        </mxCell>
        <mxCell id="j_E0jaQ_0IbvvqRghjtS-72" value="&amp;nbsp;&amp;nbsp;" style="shape=singleArrow;direction=west;whiteSpace=wrap;html=1;rounded=0;strokeWidth=1;align=left;arrowWidth=0.30833333333333146;arrowSize=0.17994100294985182;dashed=1;" vertex="1" parent="1">
          <mxGeometry x="615.5" y="230" width="66.5" height="40" as="geometry" />
        </mxCell>
        <mxCell id="j_E0jaQ_0IbvvqRghjtS-75" value="&lt;font style=&quot;font-size: 12px;&quot;&gt;干预决策&lt;/font&gt;" style="text;html=1;align=center;verticalAlign=middle;resizable=0;points=[];autosize=1;fontSize=12;" vertex="1" parent="1">
          <mxGeometry x="623.25" y="226" width="60" height="20" as="geometry" />
        </mxCell>
        <mxCell id="j_E0jaQ_0IbvvqRghjtS-76" value="智能诊断" style="rounded=0;whiteSpace=wrap;html=1;absoluteArcSize=1;arcSize=14;strokeWidth=1;" vertex="1" parent="1">
          <mxGeometry x="466" y="336" width="100" height="50" as="geometry" />
        </mxCell>
        <mxCell id="j_E0jaQ_0IbvvqRghjtS-77" value="" style="shape=flexArrow;endArrow=classic;html=1;fontSize=12;edgeStyle=elbowEdgeStyle;elbow=vertical;exitX=0.5;exitY=1;exitDx=0;exitDy=0;dashed=1;" edge="1" parent="1" source="j_E0jaQ_0IbvvqRghjtS-57" target="j_E0jaQ_0IbvvqRghjtS-70">
          <mxGeometry width="50" height="50" relative="1" as="geometry">
            <mxPoint x="693" y="360" as="sourcePoint" />
            <mxPoint x="702" y="510" as="targetPoint" />
            <Array as="points">
              <mxPoint x="762" y="510" />
            </Array>
          </mxGeometry>
        </mxCell>
        <mxCell id="j_E0jaQ_0IbvvqRghjtS-78" value="配置素材" style="edgeLabel;html=1;align=center;verticalAlign=middle;resizable=0;points=[];fontSize=12;" vertex="1" connectable="0" parent="j_E0jaQ_0IbvvqRghjtS-77">
          <mxGeometry x="-0.2553" y="4" relative="1" as="geometry">
            <mxPoint as="offset" />
          </mxGeometry>
        </mxCell>
        <mxCell id="j_E0jaQ_0IbvvqRghjtS-79" value="数智营销" style="rounded=0;whiteSpace=wrap;html=1;absoluteArcSize=1;arcSize=14;strokeWidth=1;" vertex="1" parent="1">
          <mxGeometry x="52.5" y="527" width="92.5" height="34" as="geometry" />
        </mxCell>
        <mxCell id="j_E0jaQ_0IbvvqRghjtS-80" value="流量调控" style="rounded=0;whiteSpace=wrap;html=1;absoluteArcSize=1;arcSize=14;strokeWidth=1;" vertex="1" parent="1">
          <mxGeometry x="152.5" y="527" width="92.5" height="34" as="geometry" />
        </mxCell>
      </root>
    </mxGraphModel>
  </diagram>
</mxfile>
